# xmcd
#
# Track frame offsets:
#   150
#   17970
#   33857
#   50482
#   70489
#   88714
#   106550
#   128245
#   148299
#   164143
#   179155
#   198586
#   214254
#   230577
#
# Disc length: 3301 seconds
#
# Revision: 0
# Processed by: cddbd v1.5.2PL0 Copyright (c) Steve Scherf et al.
# Submitted via: uFREEDB ActiveX Control 1.5
#
DISCID=d90ce30e
DTITLE=Raquel Mello - Visão de Vencedor
DYEAR=1900
DGENRE=Gospel and Religious
TTITLE0=01 - Visão de Vencedor
TTITLE1=02 - Exaltado
TTITLE2=03 - Vem sobre mim
TTITLE3=04 - Existe um lugar
TTITLE4=05 - Quebranta-me
TTITLE5=06 - Cura
TTITLE6=07 - Me leva em Teus braços
TTITLE7=08 - Tu és fiel
TTITLE8=09 - Renova-me
TTITLE9=10 - Tua presença é real
TTITLE10=11 - Viver pra te adorar
TTITLE11=12 - Toque de amor
TTITLE12=13 - Escravo do Teu amor
TTITLE13=14 - Chamado por Ti
EXTD=
EXTT0=
EXTT1=
EXTT2=
EXTT3=
EXTT4=
EXTT5=
EXTT6=
EXTT7=
EXTT8=
EXTT9=
EXTT10=
EXTT11=
EXTT12=
EXTT13=
PLAYORDER=
